<svg width="141" height="120" viewBox="0 0 141 120" fill="none" xmlns="http://www.w3.org/2000/svg">
<path fill-rule="evenodd" clip-rule="evenodd" d="M37.181 68.5908H80.599C87.9563 68.5908 93.9206 74.5551 93.9206 81.9124V82.353C93.9206 89.7103 87.9563 95.6746 80.599 95.6746H37.181C29.8237 95.6746 23.8594 89.7103 23.8594 82.353V81.9124C23.8594 74.5551 29.8237 68.5908 37.181 68.5908ZM38.87 76.1113H35.0176V76.1136V87.0536H39.1568C41.5201 87.0536 42.844 86.028 42.844 83.9928V83.9308C42.844 82.4761 42.151 81.6662 40.6918 81.345C41.9101 80.9618 42.392 80.1037 42.392 79.0184V78.9564C42.392 76.9672 41.0818 76.1113 38.87 76.1113ZM40.4646 79.1102C40.4646 80.2276 39.9529 80.7163 38.629 80.7163H36.9747V77.5637H38.5992C39.8772 77.5637 40.4646 78.0088 40.4646 79.0482V79.1102ZM40.873 83.8528C40.873 84.984 40.2558 85.5966 38.9159 85.5966H36.9747V82.093H38.7805C40.2558 82.093 40.873 82.6597 40.873 83.7909V83.8528ZM44.0625 83.1367V83.0128C44.0625 80.5348 45.7329 78.8828 47.9768 78.8828C49.934 78.8828 51.6939 80.0599 51.6939 82.9211V83.4557H45.9302C45.9898 84.97 46.7424 85.8282 48.0984 85.8282C49.1975 85.8282 49.7688 85.3853 49.9042 84.6052H51.664C51.4071 86.287 50.0694 87.2071 48.0526 87.2071C45.7352 87.2071 44.0625 85.663 44.0625 83.1367ZM49.8881 82.2167C49.7986 80.84 49.1057 80.2274 47.9768 80.2274C46.848 80.2274 46.1413 80.9777 45.96 82.2167H49.8881ZM52.8065 83.0592V83.1808V83.1831C52.8065 85.785 54.2979 87.2076 56.2688 87.2076C57.4275 87.2076 58.4348 86.5032 58.857 85.707V87.0539H60.6788V75.3498H58.857V80.276C58.421 79.4799 57.6248 78.8833 56.3445 78.8833C54.2956 78.8833 52.8065 80.5032 52.8065 83.0592ZM58.9166 82.9675V83.0891C58.9166 84.881 57.9828 85.7369 56.7185 85.7369C55.5438 85.7369 54.6719 84.8948 54.6719 83.1349V83.0133C54.6719 81.2833 55.4704 80.3357 56.7943 80.3357C58.1182 80.3357 58.9166 81.2076 58.9166 82.9675ZM62.8477 79.0507H64.6695V80.5489C65.1673 79.5394 65.9039 78.9428 67.2278 78.9268V80.6568C65.6331 80.6728 64.6695 81.1914 64.6695 82.8916V87.0537H62.8477V79.053V79.0507ZM69.7549 75.6064C69.1537 75.6064 68.6719 76.0653 68.6719 76.678C68.6719 77.2745 69.1537 77.7334 69.7549 77.7334C70.356 77.7334 70.8378 77.2906 70.8378 76.678C70.8378 76.0653 70.356 75.6064 69.7549 75.6064ZM70.6887 79.0504H68.8669V87.0512H70.6887V79.0504ZM73.2154 80.4412H72.1484V79.0485H73.2176V77.977C73.2176 76.2171 74.1813 75.2695 75.8655 75.2695C76.3014 75.2695 76.5721 75.3154 76.9048 75.4233V76.8619C76.6937 76.7862 76.4092 76.7242 76.0765 76.7242C75.34 76.7242 75.0372 77.2129 75.0372 77.9013V79.0485H76.8291V80.4412H75.0372V87.0516H73.2154V80.4412ZM78.727 80.4416V84.8172H78.7293C78.7293 86.3338 79.5415 87.1896 81.1063 87.1896C81.6639 87.1896 82.0539 87.0979 82.3408 86.99V85.5216C82.0838 85.6294 81.813 85.6753 81.4528 85.6753C80.8792 85.6753 80.5488 85.3541 80.5488 84.6497V80.4416H82.2788V79.0489H80.5488V77.2891H78.727V79.0489H77.6738V80.4416H78.727Z" fill="white"/>
<path d="M115.934 35.8076C115.534 35.8076 115.211 36.1357 115.211 36.5418C115.211 38.3613 113.754 39.8413 111.964 39.8413H108.683C108.284 39.8413 107.96 40.1694 107.96 40.5755V43.9116C107.96 45.7311 106.503 47.2111 104.714 47.2111C102.924 47.2111 101.467 45.7311 101.467 43.9116V40.5755C101.467 40.1694 101.143 39.8413 100.744 39.8413C100.345 39.8413 100.021 40.1694 100.021 40.5755V43.9116C100.021 46.5411 102.128 48.6818 104.714 48.6818C107.299 48.6818 109.406 46.5411 109.406 43.9116V41.312H111.964C114.552 41.312 116.656 39.1713 116.656 36.5418C116.656 36.1357 116.333 35.8076 115.934 35.8076Z" fill="#75D0C5"/>
<path d="M104.712 24.4014C102.124 24.4014 100.02 26.5421 100.02 29.1715V31.7712H97.4617C94.8735 31.7712 92.7695 33.9119 92.7695 36.5413C92.7695 36.9474 93.093 37.2756 93.4923 37.2756C93.8915 37.2756 94.215 36.9474 94.215 36.5413C94.215 34.7218 95.672 33.2419 97.4617 33.2419H100.743C101.142 33.2419 101.465 32.9138 101.465 32.5077V29.1715C101.465 27.352 102.922 25.8721 104.712 25.8721C106.502 25.8721 107.959 27.352 107.959 29.1715V32.5077C107.959 32.9138 108.282 33.2419 108.682 33.2419C109.081 33.2419 109.404 32.9138 109.404 32.5077V29.1715C109.404 26.5421 107.298 24.4014 104.712 24.4014Z" fill="white"/>
<path d="M27.1008 44.2412H24.5585C24.1753 44.2412 23.8633 44.5578 23.8633 44.9479V55.741C23.8633 56.1311 24.1753 56.4477 24.5585 56.4477H27.0686C30.8958 56.4477 33.1788 54.1808 33.1788 50.3858V50.2366C33.1788 46.4829 30.9073 44.2412 27.1008 44.2412ZM27.0182 45.6844C30.6663 45.6844 31.4304 48.1601 31.4304 50.2366V50.3697C31.4304 53.3479 29.8679 54.9884 27.0342 54.9884H25.5589V45.6821H27.0159L27.0182 45.6844Z" fill="white"/>
<path d="M38.5726 47.383C37.5929 47.5849 37.0307 48.1264 36.659 48.6702V48.2755C36.659 47.8189 36.2919 47.4449 35.8422 47.4449C35.3925 47.4449 35.0254 47.8166 35.0254 48.2755V55.6178C35.0254 56.0744 35.3925 56.4484 35.8422 56.4484C36.2919 56.4484 36.659 56.0767 36.659 55.6178V51.5199C36.659 49.8656 37.2831 49.1107 38.8135 48.9157C39.1944 48.8675 39.4835 48.5394 39.4835 48.1333C39.4835 47.9015 39.3826 47.6858 39.2059 47.539C39.0292 47.3922 38.7998 47.3348 38.5749 47.3807L38.5726 47.383Z" fill="white"/>
<path d="M41.1218 54.1211C40.4679 54.1211 39.9355 54.6626 39.9355 55.3257C39.9355 55.9888 40.4679 56.5303 41.1218 56.5303C41.7757 56.5303 42.308 55.9888 42.308 55.3257C42.308 54.6626 41.7757 54.1211 41.1218 54.1211Z" fill="white"/>
<path d="M47.8527 44.2412H45.3105C44.9273 44.2412 44.6152 44.5578 44.6152 44.9479V55.741C44.6152 56.1311 44.9273 56.4477 45.3105 56.4477H47.8206C51.6477 56.4477 53.9307 54.1808 53.9307 50.3858V50.2366C53.9307 46.4829 51.6592 44.2412 47.8527 44.2412ZM47.7701 45.6844C51.4183 45.6844 52.1823 48.1601 52.1823 50.2366V50.3697C52.1823 53.3479 50.6198 54.9884 47.7862 54.9884H46.3108V45.6821H47.7678L47.7701 45.6844Z" fill="white"/>
<path d="M59.3265 47.383C58.3468 47.5849 57.7846 48.1264 57.4129 48.6702V48.2755C57.4129 47.8189 57.0458 47.4449 56.5961 47.4449C56.1464 47.4449 55.7793 47.8166 55.7793 48.2755V55.6178C55.7793 56.0744 56.1464 56.4484 56.5961 56.4484C57.0458 56.4484 57.4129 56.0767 57.4129 55.6178V51.5199C57.4129 49.8656 58.037 49.1107 59.5674 48.9157C59.9483 48.8675 60.2374 48.5394 60.2374 48.1333C60.2374 47.9015 60.1365 47.6858 59.9598 47.539C59.7831 47.3922 59.5514 47.3348 59.3288 47.3807L59.3265 47.383Z" fill="white"/>
<path d="M65.2572 47.2959C62.7333 47.2959 60.9023 49.2278 60.9023 51.8894V52.0225C60.9023 54.6749 62.7264 56.5999 65.2412 56.5999C67.7559 56.5999 69.6121 54.668 69.6121 52.0064V51.8733C69.6121 49.2209 67.7811 47.2982 65.2572 47.2982V47.2959ZM67.9303 51.9055V52.0225C67.9303 53.9361 66.8817 55.1728 65.2572 55.1728C63.6327 55.1728 62.5842 53.9659 62.5842 52.0225V51.8894C62.5842 49.9345 63.6075 48.7208 65.2572 48.7208C66.9069 48.7208 67.9303 49.9712 67.9303 51.9055Z" fill="white"/>
<path d="M75.7003 47.2959C74.5485 47.2959 73.5091 47.9177 72.9286 48.6244V48.2756C72.9286 47.819 72.5615 47.445 72.1117 47.445C71.662 47.445 71.2949 47.8167 71.2949 48.2756V58.6557C71.2949 59.1123 71.662 59.484 72.1117 59.484C72.5615 59.484 72.9286 59.1123 72.9286 58.6557V55.3219C73.5573 56.1295 74.5622 56.5999 75.7003 56.5999C78.1186 56.5999 79.7431 54.7345 79.7431 51.9559V51.8229C79.7431 49.1154 78.1186 47.2959 75.7003 47.2959ZM78.0613 51.8894V52.0225C78.0613 53.4588 77.6299 55.1728 75.5695 55.1728C73.8349 55.1728 72.8804 54.0531 72.8804 52.0225V51.8894C72.8804 49.907 73.8785 48.7208 75.5534 48.7208C77.077 48.7208 78.0613 49.9643 78.0613 51.8894Z" fill="white"/>
<path d="M82.2758 47.4473C81.8261 47.4473 81.459 47.819 81.459 48.2779V55.6201C81.459 56.0767 81.8261 56.4507 82.2758 56.4507C82.7255 56.4507 83.0926 56.079 83.0926 55.6201V48.2779C83.0926 47.8213 82.7255 47.4473 82.2758 47.4473Z" fill="white"/>
<path d="M82.25 43.792C81.6878 43.792 81.2129 44.2761 81.2129 44.8474C81.2129 45.4188 81.6878 45.9029 82.25 45.9029C82.8121 45.9029 83.2871 45.4188 83.2871 44.8474C83.2871 44.2761 82.8121 43.792 82.25 43.792Z" fill="white"/>
<path d="M89.7035 47.2959C88.4301 47.2959 87.5582 47.858 87.0809 48.4913V48.2756C87.0809 47.819 86.7138 47.445 86.2641 47.445C85.8144 47.445 85.4473 47.8167 85.4473 48.2756V55.6179C85.4473 56.0745 85.8144 56.4485 86.2641 56.4485C86.7138 56.4485 87.0809 56.0768 87.0809 55.6179V51.0198C87.0809 49.4664 88.2167 48.7712 89.3432 48.7712C90.6649 48.7712 91.227 49.3953 91.227 50.8546V55.6202C91.227 56.0768 91.5941 56.4508 92.0438 56.4508C92.4935 56.4508 92.8606 56.0791 92.8606 55.6202V50.9556C92.8606 47.9315 91.1444 47.2982 89.7058 47.2982L89.7035 47.2959Z" fill="white"/>
</svg>
